<?xml version="1.0" standalone="no"?>
<!DOCTYPE svg PUBLIC "-//W3C//DTD SVG 20010904//EN"
 "http://www.w3.org/TR/2001/REC-SVG-20010904/DTD/svg10.dtd">
<svg version="1.0" xmlns="http://www.w3.org/2000/svg"
 width="512.000000pt" height="512.000000pt" viewBox="0 0 512.000000 512.000000"
 preserveAspectRatio="xMidYMid meet">
<metadata>
Created by potrace 1.11, written by Peter Selinger 2001-2013
</metadata>
<g transform="translate(0.000000,512.000000) scale(0.100000,-0.100000)"
fill="#000000" stroke="none">
<path d="M3172 5098 c-22 -24 -22 -31 -22 -218 -1 -185 0 -194 21 -216 27 -29
68 -31 100 -5 24 19 24 21 24 220 0 222 -1 227 -66 237 -27 5 -38 1 -57 -18z"/>
<path d="M1904 4576 c-17 -8 -34 -21 -38 -31 -18 -47 -7 -65 116 -188 172
-172 186 -180 238 -128 26 26 28 32 20 62 -13 46 -272 302 -302 299 -2 -1 -17
-7 -34 -14z"/>
<path d="M4495 4583 c-26 -6 -274 -250 -286 -282 -12 -29 4 -76 29 -87 54 -23
60 -20 203 123 157 157 167 176 121 223 -17 16 -34 29 -39 29 -4 -1 -17 -3
-28 -6z"/>
<path d="M3072 4449 c-344 -42 -671 -241 -867 -528 l-48 -70 -46 24 c-45 22
-154 58 -216 71 -16 3 -77 8 -135 11 -228 11 -458 -73 -637 -232 -131 -116
-250 -326 -278 -491 -4 -22 -8 -46 -10 -54 -2 -8 -4 -23 -4 -32 -1 -12 -14
-19 -49 -23 -291 -42 -554 -228 -682 -485 -73 -146 -99 -264 -95 -430 3 -120
5 -136 32 -235 17 -64 110 -255 124 -255 4 0 10 -8 13 -17 8 -23 96 -116 166
-175 119 -99 301 -176 465 -196 28 -3 461 -6 962 -6 l912 -1 22 22 c29 29 29
77 1 106 l-22 22 -923 1 c-507 0 -941 4 -965 8 -243 40 -456 199 -566 422 -30
61 -41 93 -63 179 -3 11 -7 67 -9 125 -8 247 93 459 294 618 48 37 180 109
217 117 11 2 38 9 60 15 22 5 74 13 115 16 129 11 133 16 143 151 23 312 262
587 576 662 377 90 756 -126 886 -504 9 -28 19 -59 21 -70 2 -11 6 -31 9 -45
2 -14 7 -62 10 -107 6 -103 11 -124 43 -192 30 -63 106 -142 166 -173 80 -41
131 -48 357 -48 237 0 292 -7 389 -47 224 -92 364 -295 365 -528 0 -110 -8
-159 -36 -227 -61 -146 -174 -262 -312 -322 -92 -41 -152 -49 -349 -51 -164
-1 -189 -3 -206 -18 -42 -38 -32 -100 20 -121 35 -14 332 -15 416 -2 153 24
324 115 423 223 75 82 147 211 175 315 19 72 28 220 16 290 l-9 58 36 27 c92
69 214 202 283 309 79 122 150 301 173 434 22 125 27 318 11 408 -3 17 -8 47
-11 65 -21 134 -135 389 -220 492 -30 37 -42 45 -70 45 -40 0 -75 -32 -75 -68
0 -14 26 -66 58 -116 129 -201 183 -391 176 -616 -3 -129 -17 -210 -55 -324
-56 -170 -182 -360 -310 -467 l-48 -40 -22 43 c-30 59 -97 144 -153 196 -26
23 -50 42 -52 42 -3 0 -20 11 -37 24 -57 43 -177 95 -258 112 -44 9 -173 15
-364 17 -210 2 -230 7 -295 70 -49 48 -71 105 -76 204 -7 128 -37 252 -89 361
-54 114 -105 185 -193 269 l-64 62 22 38 c131 217 379 398 639 464 103 26 158
33 276 33 229 0 408 -55 605 -184 45 -29 91 -52 106 -52 58 0 89 78 49 122
-25 27 -136 100 -210 138 -110 55 -272 105 -385 119 -71 8 -257 9 -318 2z"/>
<path d="M4664 3275 c-48 -48 -17 -125 50 -125 157 -2 356 1 369 5 24 10 42
62 31 93 -16 46 -43 51 -242 51 -181 0 -184 0 -208 -24z"/>
<path d="M4228 2220 c-51 -52 -43 -68 124 -232 107 -106 135 -128 159 -128 38
0 81 43 75 76 -7 39 -21 56 -148 180 -141 138 -164 149 -210 104z"/>
<path d="M1545 1140 c-32 -12 -42 -29 -135 -215 -90 -180 -97 -207 -61 -239
31 -28 66 -29 94 -4 31 27 197 358 197 391 -1 44 -54 82 -95 67z"/>
<path d="M2367 1137 c-23 -7 -42 -38 -124 -201 l-95 -193 16 -35 c21 -43 65
-57 103 -33 25 17 203 362 203 395 0 23 -34 66 -57 72 -10 3 -31 1 -46 -5z"/>
<path d="M3188 1134 c-22 -11 -76 -110 -180 -331 -32 -67 -31 -90 4 -122 22
-21 73 -20 94 1 18 18 182 346 189 378 12 54 -55 101 -107 74z"/>
<path d="M1857 469 c-25 -15 -197 -362 -197 -399 0 -50 63 -85 109 -60 25 13
201 364 201 401 0 53 -64 86 -113 58z"/>
<path d="M2678 463 c-15 -17 -180 -340 -191 -374 -3 -8 1 -29 8 -46 10 -24 22
-33 48 -38 19 -4 43 -2 53 3 11 6 61 94 112 197 80 158 93 192 88 219 -10 51
-85 76 -118 39z"/>
</g>
</svg>
